<svg id="OBJECTS" xmlns="http://www.w3.org/2000/svg" xmlns:xlink="http://www.w3.org/1999/xlink" viewBox="0 0 500 500"><defs><style>.cls-1{fill:#fff;}.cls-10,.cls-12,.cls-15,.cls-2,.cls-21,.cls-7{fill:none;}.cls-2{stroke:#f8e6f0;}.cls-15,.cls-2,.cls-7{stroke-linecap:round;stroke-linejoin:round;}.cls-3{fill:#9d583b;}.cls-4{fill:#d4957a;}.cls-5{fill:#e3aa8c;}.cls-6{fill:#aa8069;}.cls-15,.cls-7{stroke:#000;}.cls-7{stroke-width:1.13754px;}.cls-8{clip-path:url(#clip-path);}.cls-9{clip-path:url(#clip-path-2);}.cls-10{stroke:#ededef;stroke-width:1.76495px;}.cls-10,.cls-12,.cls-21{stroke-miterlimit:10;}.cls-11{fill:#bde0fe;}.cls-12{stroke:#003049;stroke-width:1.41038px;}.cls-13{fill:#fcfdff;}.cls-14{fill:#219ebc;}.cls-15{stroke-width:1.084px;}.cls-16{fill:#085c6f;}.cls-17{fill:#d3ecf2;}.cls-18{fill:#7058e6;}.cls-19{fill:#0a53be;}.cls-20{fill:#0d6efd;}.cls-21{stroke:#3d8bfd;stroke-width:7px;}.cls-22{fill:#210088;}.cls-23{fill:#f2f2f2;}.cls-24{fill:#cf51a2;}.cls-25{fill:#e173b4;}.cls-26{fill:#edbbde;}</style><clipPath id="clip-path"><path class="cls-1" d="M370.03794,151.24257s.86109-4.96765,9.24964-2.8786c7.53064,1.87551,7.77913,5.82557,7.77913,5.82557s-2.12458,6.45008-10.51662,5.2347S370.03794,151.24257,370.03794,151.24257Z"/></clipPath><clipPath id="clip-path-2"><path class="cls-1" d="M354.36949,148.75661s.8206-4.83632-5.12158-5.23661c-5.33444-.35936-6.58388,3.22672-6.58388,3.22672s-.35092,5.945,5.35231,7.15464S354.36949,148.75661,354.36949,148.75661Z"/></clipPath></defs><polygon points="280.118 410.686 246.932 499.31 317.366 499.31 330.705 460.802 337.648 461.93 339.749 499.31 407.31 499.192 404.097 428.192 280.118 410.686"/><line class="cls-2" x1="336.97361" y1="461.80803" x2="310.43154" y2="457.0123"/><path class="cls-3" d="M420.59353,145.94637c-3.39235,21.25014-32.58917,34.89544-47.72241,31.839-21.09328-4.26017-35.72672-23.369-32.33437-44.61913A38.964,38.964,0,0,1,385.156,100.83182C406.40614,104.22417,424.4507,121.78445,420.59353,145.94637Z"/><path class="cls-4" d="M355.86271,160.89149c-1.38887,6.84868-7.82163,10.21966-14.67031,8.83079s-10.93693-9.55424-9.54806-16.40292,7.48375-8.73218,14.33254-7.34331A12.65307,12.65307,0,0,1,355.86271,160.89149Z"/><polygon class="cls-5" points="387.681 176.786 383.323 228.808 351.057 227.139 359.642 181.63 387.681 176.786"/><path class="cls-6" d="M354.523,208.76692s19.737-1.39866,34.22811-22.63542l-30.42872,2.49518Z"/><path class="cls-5" d="M371.25849,104.80144s-27.565-3.4913-31.25,32.86442-.97958,46.60923,12.22979,56.48786c11.87074,8.87757,29.42474,5.46026,41.286-8.3537a55.26359,55.26359,0,0,0,10.54125-20.978l3.6477-9.06613S426.49758,110.76566,371.25849,104.80144Z"/><path d="M409.50367,121.95524s-70.70256,10.342-75.9982-13.02687,32.07711-23.84135,43.77582-7.5692C377.28129,101.35917,402.552,106.441,409.50367,121.95524Z"/><path d="M406.15754,118.02587c-.232-.29156-11.73943,11.967-2.3444,26.59448l-5.66153,19.42005,4.21633,2.61415,9.45968-11.03734,3.84739-24.10064Z"/><path d="M370.46646,97.32062s24.42784-9.71627,44.91744,6.62638c16.12372,12.86035-7.73483,28.98464-7.73483,28.98464l-3.91959-15.56478-21.08755-9.49577Z"/><path d="M413.57158,115.73061s18.75922-.41209,18.26066,18.36671S402.53839,175.77,402.53839,175.77Z"/><path class="cls-5" d="M395.48957,171.03818c.40411,6.97641,3.25832,10.0636,12.41125,9.684,6.98215-.28965,12.18076-7.90754,11.77664-14.884s-5.67142-9.45124-13.03834-8.35145C401.509,158.25272,395.08545,164.06177,395.48957,171.03818Z"/><path class="cls-7" d="M412.445,165.86971s-6.15525-2.4429-9.83939,6.26994"/><polyline class="cls-7" points="357.482 155 351.943 163.986 356.179 167.305"/><path class="cls-1" d="M370.03794,151.24257s.86109-4.96765,9.24964-2.8786c7.53064,1.87551,7.77913,5.82557,7.77913,5.82557s-2.12458,6.45008-10.51662,5.2347S370.03794,151.24257,370.03794,151.24257Z"/><g class="cls-8"><path d="M382.50284,154.06833c-.60156,3.52863-3.45881,5.97917-6.38183,5.4733s-4.80482-3.77656-4.20326-7.30519,3.45879-5.97917,6.38181-5.4733S383.1044,150.53959,382.50284,154.06833Z"/></g><path d="M369.57809,148.72028a10.67859,10.67859,0,0,1,2.52259-1.1196,13.67267,13.67267,0,0,1,2.59686-.52655,15.56522,15.56522,0,0,1,5.20587.32806,10.73013,10.73013,0,0,1,4.6174,2.39908,9.95719,9.95719,0,0,1,2.82605,4.30438.2917.2917,0,0,1-.54867.19736l-.01163-.02957a9.26152,9.26152,0,0,0-2.84555-3.78659,9.67185,9.67185,0,0,0-4.29361-1.90113,14.02166,14.02166,0,0,0-4.73474.01294,12.05331,12.05331,0,0,0-2.26016.61679,9.20267,9.20267,0,0,0-1.97727,1.02326l-.048.035a.93785.93785,0,0,1-1.10449-1.516C369.54019,148.74493,369.56,148.73163,369.57809,148.72028Z"/><path class="cls-1" d="M354.36949,148.75661s.8206-4.83632-5.12158-5.23661c-5.33444-.35936-6.58388,3.22672-6.58388,3.22672s-.35092,5.945,5.35231,7.15464S354.36949,148.75661,354.36949,148.75661Z"/><g class="cls-9"><path d="M344.497,147.754c-.5893,3.43261.6787,6.51507,2.83228,6.88478s4.37723-2.11311,4.96664-5.54572-.67869-6.51495-2.83228-6.88477S345.08646,144.32137,344.497,147.754Z"/></g><path d="M354.10492,147.42337a7.20665,7.20665,0,0,0-2.15363-2.5968,6.67905,6.67905,0,0,0-3.182-1.31366,5.212,5.212,0,0,0-3.33509.80878,8.45662,8.45662,0,0,0-2.56109,2.54113l-.01032.01578a.23875.23875,0,0,1-.40777-.248,9.03024,9.03024,0,0,1,2.57544-2.91672,6.0762,6.0762,0,0,1,3.80655-1.17975,7.892,7.892,0,0,1,3.82632,1.262,8.49785,8.49785,0,0,1,2.83072,2.98142.76705.76705,0,0,1-1.33444.7568c-.00949-.01669-.01828-.03363-.02637-.05069Z"/><path d="M383.48726,131.7618s5.41,1.243,8.61547,3.74958c2.65473,2.07589,2.00808,4.87713-.698,5.75429-1.67717.54354-6.22688.1772-9.213-.48991-9.41537-2.10344-10.56778-5.40932-9.95013-7.62666C373.11029,130.03043,379.6493,130.69721,383.48726,131.7618Z"/><path d="M349.77784,126.47324a18.87147,18.87147,0,0,0-7.60777,1.16894c-2.68655,1.201-3.262,3.92915-1.6368,5.43889,1.00737.93574,4.40668,1.992,6.8263,1.965,7.87021-.08771,9.63295-2.17383,10.01233-4.36092C357.90533,127.609,352.94171,126.50574,349.77784,126.47324Z"/><path class="cls-10" d="M382.86872,193.55239a43.72976,43.72976,0,0,0,15.57288-14.89385"/><path class="cls-10" d="M379.2923,181.0252c-.18863.40231,7.20776-15.86879,20.83919-17.83485"/><path class="cls-11" d="M338.00121,165.46739l15.12255-4.4548L384.91065,172.956s3.28193,5.18983.6688,20.03218c0,0-15.06352,11.48373-29.47184,3.73653C342.43487,189.373,337.95106,177.67952,338.00121,165.46739Z"/><circle class="cls-12" cx="377.2059" cy="154.1864" r="13.97957" transform="translate(220.06903 530.17275) rotate(-89.55111)"/><path class="cls-12" d="M356.04,150.1917c-1.46916,7.5782-8.01762,12.74206-14.62624,11.53365s-10.77523-8.33144-9.30608-15.90964,8.01762-12.74206,14.62635-11.53365S357.50919,142.6135,356.04,150.1917Z"/><path class="cls-12" d="M356.03868,150.19147a7.62453,7.62453,0,0,1,7.43024,1.40226"/><line class="cls-12" x1="391.00507" y1="156.42307" x2="399.7801" y2="158.12566"/><path class="cls-13" d="M359.71157,225.79838l-16.089,2.492c-23.33638,9.74314-40.52729,19.89388-43.40567,40.25023l-20.09931,142.145,123.97944,17.50642.72367-87.29944,14.215-74.667c2.00955-10.55541-16.97659-27.9694-26.41839-33.09852l-9.29484-4.31931Z"/><path class="cls-14" d="M320.00983,233.98489s-23.54417,3.94162-35.22141,11.72469-86.53382,57.4553-86.53382,57.4553l14.8636,48.00654L285.012,312.72958Z"/><path class="cls-14" d="M343.62259,228.29042l-30.53069,7.36276a14.34219,14.34219,0,0,0-11.00531,10.67876L249.88422,443.70308l27.63971,1.79771s26.79856-64.80715,32.34258-115.20295C318.74161,249.6232,343.62259,228.29042,343.62259,228.29042Z"/><line class="cls-15" x1="285.01196" y1="312.72958" x2="294.71855" y2="278.84431"/><path class="cls-16" d="M343.62259,228.29042l-9.90753,2.07341s-12.77926,3.76723-26.64249,26.32439l8.23205,3.88664-10.73555,6.5199.13234,93.08522s4.95484-22.43887,9.87481-56.69588C322.44272,248.7103,343.62259,228.29042,343.62259,228.29042Z"/><path class="cls-14" d="M392.61737,233.12707s-33.65331,36.18976-37.22759,110.595,17.21014,116.66008,17.21014,116.66008l67.32842,8.17414S417.784,404.3977,416.10206,375.614c12.64659-78.87568,12.94108-79.45779,21.04066-104.24916,2.85816-8.74837.57795-15.08-17.22868-24.05173Z"/><path class="cls-16" d="M392.61737,233.12707l7.71695,3.95343-3.73721,29.38392-14.90644,1.76117L392.112,285.83826,355.16929,372.2592S347.00313,286.40181,392.61737,233.12707Z"/><path class="cls-14" d="M439.85379,262.1098c28.73592,33.28146,47.96707,68.919,47.96707,68.919,5.21558,10.54541,1.671,25.64761-8.14085,32.13872h0c-11.49453,7.60417-29.15724,5.50445-35.61563-6.6708l-41.77257-57.07143c-6.52688-12.30432-8.73848-42.57416,3.81917-48.59921h.00013C418.21573,245.01851,431.07967,251.94781,439.85379,262.1098Z"/><line class="cls-15" x1="423.55769" y1="329.70437" x2="406.55265" y2="306.61705"/><polygon class="cls-5" points="407.818 431.905 416.805 420.131 399.613 408.935 392.425 419.248 382.79 416.737 399.818 446.403 407.818 431.905"/><line class="cls-15" x1="399.81778" y1="446.40347" x2="377.46794" y2="408.93459"/><polygon class="cls-14" points="486.439 356.28 423.252 434.453 389.725 407.454 443.84 328.917 486.439 356.28"/><polyline class="cls-15" points="416.807 368.149 389.725 407.454 396.719 413.086"/><line class="cls-15" x1="434.03597" y1="343.14604" x2="443.75067" y2="330.54768"/><polygon class="cls-5" points="383.323 228.808 353.053 240.441 351.057 227.139 359.712 225.798 383.323 228.808 383.323 228.808"/><polygon class="cls-17" points="353.053 240.441 360.445 258.182 395.487 234.597 383.323 228.808 353.053 240.441"/><polygon class="cls-17" points="353.053 240.441 336.353 249.158 342.709 228.432 351.057 227.139 353.053 240.441"/><polygon class="cls-18" points="353.053 240.441 340.898 246.786 345.23 256.3 358.294 253.02 353.053 240.441"/><path class="cls-18" d="M351.015,251.7986s-21.34324,64.43026,23.77839,131.18884l-7.137,23.86867L345.903,397.86217s-30.9961-75.4134-.05184-146.39943Z"/><path class="cls-19" d="M298.37266,191.07947C265.26661,180.27691,246.67806,151.52,240.336,139.93a4.62037,4.62037,0,0,0-3.14217-2.314l.00259-.00753L220.86315,132.645l-6.78695,9.73515-.48711,6.74164c-21.302,8.031-41.98575,6.30143-51.77072,4.73107a7.67066,7.67066,0,0,0-8.31492,4.58985c-49.343,118.4-17.26219,177.65167,5.22335,201.91771l-.58369,7.93778,16.54111,5.02646a11.13592,11.13592,0,0,0,4.7891.48732c90.74936-11.15653,118.72112-142.64344,124.14551-174.17689A7.65223,7.65223,0,0,0,298.37266,191.07947Z"/><path class="cls-20" d="M223.79392,134.90318c6.342,11.59,24.93057,40.34693,58.03662,51.14938a7.65243,7.65243,0,0,1,5.24617,8.55576c-5.42439,31.53346-33.39615,163.02037-124.1455,174.1769a11.69174,11.69174,0,0,1-8.2505-2.23916C137.7979,354.32483,76.744,297.90938,136.96133,153.416a7.67059,7.67059,0,0,1,8.31492-4.58985c12.84449,2.06138,44.46778,4.417,71.61963-15.423A4.69746,4.69746,0,0,1,223.79392,134.90318Z"/><path class="cls-21" d="M223.79392,134.90318c6.342,11.59,24.93057,40.34693,58.03662,51.14938a7.65243,7.65243,0,0,1,5.24617,8.55576c-5.42439,31.53346-33.39615,163.02037-124.1455,174.1769a11.69174,11.69174,0,0,1-8.2505-2.23916C137.7979,354.32483,76.744,297.90938,136.96133,153.416a7.67059,7.67059,0,0,1,8.31492-4.58985c12.84449,2.06138,44.46778,4.417,71.61963-15.423A4.69746,4.69746,0,0,1,223.79392,134.90318Z"/><path class="cls-22" d="M188.61839,289.99555l-14.256-3.52785a4.90429,4.90429,0,0,1-3.5826-5.9388l18.99615-75.98a4.90439,4.90439,0,0,1,5.9388-3.5826l14.256,3.52784a4.90435,4.90435,0,0,1,3.58261,5.93892L194.5573,286.413A4.90434,4.90434,0,0,1,188.61839,289.99555Z"/><path class="cls-22" d="M233.3937,244.7183,228.79957,263.283a4.90436,4.90436,0,0,1-5.9388,3.58271L158.23959,250.741a4.90441,4.90441,0,0,1-3.58271-5.9388l4.59423-18.56483a4.90434,4.90434,0,0,1,5.93881-3.5826l64.62117,16.12474A4.90422,4.90422,0,0,1,233.3937,244.7183Z"/><path class="cls-23" d="M181.73485,288.29218l-14.256-3.52785a4.90432,4.90432,0,0,1-3.5826-5.93891l18.99615-75.97988a4.90415,4.90415,0,0,1,5.9388-3.5826l14.256,3.52784a4.90416,4.90416,0,0,1,3.5826,5.93881l-18.99615,75.98A4.90439,4.90439,0,0,1,181.73485,288.29218Z"/><path class="cls-23" d="M226.51016,243.01481,221.916,261.57964a4.90451,4.90451,0,0,1-5.93892,3.5826L151.35594,249.0375a4.9044,4.9044,0,0,1-3.5826-5.93881l4.59412-18.56471a4.90443,4.90443,0,0,1,5.93881-3.58271l64.6213,16.12474A4.90444,4.90444,0,0,1,226.51016,243.01481Z"/><polygon class="cls-24" points="192.572 121.575 208.238 115.538 206.918 111.832 190.506 114.737 192.572 121.575"/><path class="cls-24" d="M211.17656,117.60456a5.98538,5.98538,0,1,1,6.83372-4.995A5.98528,5.98528,0,0,1,211.17656,117.60456Z"/><polygon class="cls-24" points="187.227 155.957 200.322 166.465 197.938 169.595 183.183 161.846 187.227 155.957"/><path class="cls-24" d="M203.74858,165.38812a5.98538,5.98538,0,1,0,4.995,6.83373A5.98536,5.98536,0,0,0,203.74858,165.38812Z"/><polygon class="cls-24" points="110.759 144.07 95.093 150.107 96.413 153.813 112.824 150.908 110.759 144.07"/><path class="cls-24" d="M92.15431,148.0407a5.98538,5.98538,0,1,1-6.83372,4.995A5.98528,5.98528,0,0,1,92.15431,148.0407Z"/><polygon class="cls-24" points="116.104 109.688 103.009 99.181 105.393 96.05 120.147 103.8 116.104 109.688"/><path class="cls-24" d="M99.58229,100.25713a5.98538,5.98538,0,1,0-4.995-6.83372A5.98536,5.98536,0,0,0,99.58229,100.25713Z"/><polygon class="cls-24" points="160.33 174.046 166.366 189.713 170.073 188.392 167.168 171.981 160.33 174.046"/><path class="cls-24" d="M164.30039,192.65083a5.98533,5.98533,0,1,1,4.99487,6.83373A5.98526,5.98526,0,0,1,164.30039,192.65083Z"/><polygon class="cls-24" points="130.3 169.213 119.792 182.308 116.662 179.924 124.412 165.17 130.3 169.213"/><path class="cls-24" d="M120.869,185.7348a5.98538,5.98538,0,1,0-6.83373,4.99486A5.98536,5.98536,0,0,0,120.869,185.7348Z"/><polygon class="cls-24" points="176.737 97.008 187.245 83.913 190.375 86.297 182.625 101.052 176.737 97.008"/><path class="cls-24" d="M186.16818,80.4866a5.98532,5.98532,0,1,0,6.83361-4.995A5.98528,5.98528,0,0,0,186.16818,80.4866Z"/><polygon class="cls-24" points="149.247 92.988 143.211 77.321 139.504 78.642 142.409 95.053 149.247 92.988"/><path class="cls-24" d="M145.27658,74.383a5.98532,5.98532,0,1,1-4.99486-6.83373A5.98534,5.98534,0,0,1,145.27658,74.383Z"/><circle class="cls-25" cx="154.67026" cy="133.06567" r="45.69161"/><path class="cls-26" d="M124.86671,122.66688c1.57159,2.84791,5.80175,3.5256,9.448,1.51313,3.64625-2.01281,5.3278-5.95309,3.75565-8.80111-1.572-2.84746-5.80208-3.52515-9.44843-1.51267C124.97612,115.87915,123.29411,119.81886,124.86671,122.66688Z"/><path class="cls-26" d="M181.83245,142.66938c1.73687,1.00714,4.19045.02058,5.47982-2.20328,1.28958-2.22409.9264-4.843-.81082-5.85009-1.73676-1.00714-4.19012-.02058-5.4797,2.20328C179.73238,139.043,180.09568,141.662,181.83245,142.66938Z"/><path class="cls-26" d="M159.38154,132.85608c1.88148,2.704,6.214,2.94292,9.6759.53376,3.46252-2.40939,4.74277-6.55431,2.86084-9.25852-1.88148-2.704-6.2135-2.9427-9.6759-.53376C158.78043,126.00672,157.5003,130.15176,159.38154,132.85608Z"/><path class="cls-26" d="M144.75216,160.29229c-.21555,1.99662,1.68189,3.83795,4.23779,4.11366s4.80192-1.119,5.01735-3.11541-1.68189-3.838-4.23779-4.11366C147.21383,156.90117,144.967,158.29623,144.75216,160.29229Z"/><path class="cls-26" d="M131.12789,146.96362c1.5021-1.33209,1.33715-3.97142-.369-5.8945-1.7055-1.923-4.30581-2.40208-5.80792-1.06977-1.5021,1.3321-1.337,3.97143.36847,5.89451C127.02547,147.81716,129.62613,148.29594,131.12789,146.96362Z"/><path class="cls-26" d="M172.26314,113.73782c1.5021-1.33243,1.33681-3.97142-.36869-5.89473-1.70585-1.92274-4.30616-2.40208-5.80849-1.06954-1.5021,1.33243-1.337,3.97142.36869,5.8945C168.16084,114.591,170.76115,115.07036,172.26314,113.73782Z"/><path class="cls-26" d="M145.00965,107.798c-.23253,1.44543,1.18873,2.87613,3.17432,3.195,1.98538.319,3.78264-.59392,4.0155-2.03935.232-1.44577-1.18872-2.87613-3.1741-3.19535C147.04011,105.43932,145.24184,106.35223,145.00965,107.798Z"/><path class="cls-26" d="M160.25217,151.34624c.62045,2.0181,3.36987,2.96317,6.14244,2.11142,2.77168-.85185,4.51553-3.1786,3.89564-5.19658-.62034-2.01809-3.3702-2.96361-6.14243-2.11176C161.37614,147.00163,159.63184,149.32826,160.25217,151.34624Z"/><path class="cls-26" d="M142.562,137.81c-.2323,1.44577,1.189,2.87636,3.17433,3.19536,1.98537.31922,3.78319-.594,4.01549-2.03946.2322-1.44577-1.18906-2.87614-3.17409-3.195C144.59205,135.45156,142.79456,136.36481,142.562,137.81Z"/><polygon class="cls-24" points="137.857 332.306 146.063 322.368 143.784 320.386 133.9 328.509 137.857 332.306"/><path class="cls-24" d="M148.80667,322.64307a4.59464,4.59464,0,1,1,2.69016-5.91475A4.59466,4.59466,0,0,1,148.80667,322.64307Z"/><polygon class="cls-24" points="147.23 357.318 159.946 359.415 159.531 362.407 146.742 362.779 147.23 357.318"/><path class="cls-24" d="M161.83321,357.40414a4.59464,4.59464,0,1,0,5.91485,2.69016A4.59462,4.59462,0,0,0,161.83321,357.40414Z"/><polygon class="cls-24" points="91.602 378.164 83.396 388.102 85.675 390.084 95.559 381.96 91.602 378.164"/><path class="cls-24" d="M80.652,387.82645a4.59468,4.59468,0,1,1-2.69015,5.91486A4.59464,4.59464,0,0,1,80.652,387.82645Z"/><polygon class="cls-24" points="82.229 353.152 69.512 351.055 69.928 348.063 82.716 347.69 82.229 353.152"/><path class="cls-24" d="M67.62538,353.06549a4.59467,4.59467,0,1,0-5.91474-2.69016A4.59466,4.59466,0,0,0,67.62538,353.06549Z"/><polygon class="cls-24" points="136.05 379.547 145.988 387.753 147.97 385.474 139.846 375.59 136.05 379.547"/><path class="cls-24" d="M145.71241,390.497a4.59469,4.59469,0,1,1,5.91485,2.69016A4.59473,4.59473,0,0,1,145.71241,390.497Z"/><polygon class="cls-24" points="114.142 387.623 112.045 400.34 109.053 399.925 108.68 387.136 114.142 387.623"/><path class="cls-24" d="M114.05549,402.227a4.59464,4.59464,0,1,0-2.69,5.91474A4.59457,4.59457,0,0,0,114.05549,402.227Z"/><polygon class="cls-24" points="118.013 321.836 120.11 309.119 123.102 309.534 123.474 322.323 118.013 321.836"/><circle class="cls-24" cx="122.40172" cy="305.61987" r="4.59469"/><polygon class="cls-24" points="98.11 329.499 88.172 321.293 86.19 323.572 94.314 333.456 98.11 329.499"/><path class="cls-24" d="M88.44724,318.54908a4.59464,4.59464,0,1,1-5.91474-2.69015A4.59467,4.59467,0,0,1,88.44724,318.54908Z"/><circle class="cls-25" cx="116.83085" cy="354.26574" r="35.07525" transform="translate(-66.50912 29.39635) rotate(-11.18652)"/><path class="cls-26" d="M92.97839,358.53373c2.1238,1.3132,5.20862.1735,6.88973-2.54589,1.6811-2.71962,1.322-5.98862-.80216-7.30171-2.124-1.31264-5.20884-.17293-6.88995,2.54646C90.49524,353.95209,90.85382,357.22087,92.97839,358.53373Z"/><path class="cls-26" d="M138.61714,350.46068c1.541.01956,2.81081-1.5644,2.83577-3.53763s-1.20425-3.58845-2.74548-3.6079c-1.54112-.01967-2.81069,1.56428-2.83588,3.53751C135.84659,348.82578,137.07591,350.44089,138.61714,350.46068Z"/><path class="cls-26" d="M119.90345,352.35126c2.27693,1.10024,5.26494-.37162,6.67338-3.28688,1.40889-2.91571.70422-6.17043-1.573-7.27067-2.27694-1.10024-5.2646.37162-6.67339,3.28688C116.92184,347.996,117.62651,351.25069,119.90345,352.35126Z"/><path class="cls-26" d="M120.44991,376.21342c.60786,1.41676,2.5704,1.934,4.384,1.15578s2.79067-2.55691,2.183-3.97345-2.5704-1.93387-4.384-1.15578S119.84194,374.79733,120.44991,376.21342Z"/><path class="cls-26" d="M106.31673,372.42842c.50317-1.45667-.60122-3.16-2.46674-3.80388-1.86506-.64407-3.78477.01473-4.28783,1.47163s.60123,3.16016,2.46629,3.80422C103.894,374.54434,105.81389,373.88532,106.31673,372.42842Z"/><path class="cls-26" d="M121.32032,334.71138c.50306-1.457-.60145-3.16005-2.46663-3.80434-1.86517-.64372-3.7851.015-4.28828,1.4722-.50295,1.4569.60134,3.16,2.46651,3.804C118.89743,336.82707,120.81737,336.16839,121.32032,334.71138Z"/><path class="cls-26" d="M100.85276,341.00179c.38882,1.05447,1.87833,1.47624,3.32669.94181s2.30662-1.82189,1.918-2.87648c-.38927-1.05447-1.87833-1.47624-3.32657-.942S100.46372,339.9472,100.85276,341.00179Z"/><path class="cls-26" d="M127.44927,364.39191c1.175,1.11632,3.37008.71311,4.90389-.90087,1.53325-1.61365,1.82357-3.82672.6489-4.94314-1.175-1.11632-3.37054-.71322-4.90413.90054C126.5648,361.06242,126.27426,363.27571,127.44927,364.39191Z"/><path class="cls-26" d="M110.51809,361.99928c.389,1.05458,1.87856,1.47635,3.32669.942,1.44835-.5341,2.30707-1.82211,1.918-2.87647-.38916-1.05459-1.87844-1.47613-3.32646-.94192C110.98788,359.65724,110.12938,360.945,110.51809,361.99928Z"/><polygon class="cls-24" points="47.553 228.245 51.26 220.318 49.425 219.402 44.307 226.421 47.553 228.245"/><path class="cls-24" d="M53.11046,220.033a3.11961,3.11961,0,1,1,.76382-4.34518A3.11963,3.11963,0,0,1,53.11046,220.033Z"/><polygon class="cls-24" points="57.963 243.095 66.679 242.314 66.914 244.351 58.57 246.768 57.963 243.095"/><path class="cls-24" d="M67.57748,240.67165a3.11966,3.11966,0,1,0,4.34518.76393A3.11969,3.11969,0,0,0,67.57748,240.67165Z"/><polygon class="cls-24" points="24.935 266.247 21.228 274.173 23.063 275.089 28.181 268.07 24.935 266.247"/><path class="cls-24" d="M19.37766,274.45831a3.11963,3.11963,0,1,1-.76392,4.34518A3.11955,3.11955,0,0,1,19.37766,274.45831Z"/><polygon class="cls-24" points="14.525 251.396 5.809 252.177 5.574 250.14 13.918 247.723 14.525 251.396"/><path class="cls-24" d="M4.91053,253.81962a3.11958,3.11958,0,1,0-4.34517-.76392A3.11955,3.11955,0,0,0,4.91053,253.81962Z"/><polygon class="cls-24" points="54.389 259.607 62.316 263.314 63.231 261.479 56.212 256.361 54.389 259.607"/><path class="cls-24" d="M62.6005,265.16415a3.11963,3.11963,0,1,1,4.34518.76393A3.11971,3.11971,0,0,1,62.6005,265.16415Z"/><polygon class="cls-24" points="41.359 268.637 42.14 277.353 40.103 277.588 37.686 269.244 41.359 268.637"/><path class="cls-24" d="M43.78212,278.25174a3.11958,3.11958,0,1,0-.76381,4.34518A3.11953,3.11953,0,0,0,43.78212,278.25174Z"/><polygon class="cls-24" points="32.73 224.732 31.949 216.016 33.986 215.781 36.403 224.125 32.73 224.732"/><path class="cls-24" d="M30.30672,215.11748a3.11958,3.11958,0,1,0,.76381-4.34518A3.11954,3.11954,0,0,0,30.30672,215.11748Z"/><polygon class="cls-24" points="20.948 233.15 13.021 229.443 12.105 231.278 19.124 236.396 20.948 233.15"/><path class="cls-24" d="M12.7361,227.59294a3.11958,3.11958,0,1,1-4.34506-.76381A3.11955,3.11955,0,0,1,12.7361,227.59294Z"/><circle class="cls-25" cx="37.46096" cy="246.25171" r="23.81483" transform="translate(-207.77545 202.63595) rotate(-71.2655)"/><path class="cls-26" d="M22.50567,253.10854c1.61926.5025,3.45351-.77067,4.0969-2.84386.64316-2.0733-.14808-4.16133-1.76746-4.66372-1.61927-.50216-3.45352.771-4.09691,2.8442C20.09526,250.51824,20.88617,252.60627,22.50567,253.10854Z"/><path class="cls-26" d="M51.13645,240.05019a2.50038,2.50038,0,1,0-2.4176-1.90554A2.2105,2.2105,0,0,0,51.13645,240.05019Z"/><path class="cls-26" d="M39.15562,244.47138c1.68369.33653,3.398-1.13847,3.82873-3.29419.431-2.15595-.585-4.176-2.26895-4.51238-1.68358-.33654-3.39764,1.13835-3.82873,3.29419C36.4559,242.11461,37.47192,244.13461,39.15562,244.47138Z"/><path class="cls-26" d="M43.56758,260.06505a2.50034,2.50034,0,0,0,3.83841-2.96766,2.50036,2.50036,0,0,0-3.83841,2.96766Z"/><path class="cls-26" d="M33.634,259.97724a2.21019,2.21019,0,0,0-2.26772-2.08174,1.95291,1.95291,0,1,0-.30145,3.77758A2.21045,2.21045,0,0,0,33.634,259.97724Z"/><path class="cls-26" d="M37.09108,232.63458a2.21046,2.21046,0,0,0-2.2676-2.08185,1.953,1.953,0,1,0-.30145,3.7778A2.21029,2.21029,0,0,0,37.09108,232.63458Z"/><path class="cls-26" d="M24.70456,240.246a1.70232,1.70232,0,0,0,2.34688.05408,1.70269,1.70269,0,0,0,.77224-2.21666,1.70273,1.70273,0,0,0-2.34676-.05431A1.70283,1.70283,0,0,0,24.70456,240.246Z"/><path class="cls-26" d="M46.161,251.10507c.962.53421,2.33653-.10367,3.07077-1.42508.7339-1.32119.54882-2.82542-.413-3.35974-.962-.53433-2.33686.10355-3.07088,1.42485C45.01414,249.06651,45.1991,250.57075,46.161,251.10507Z"/><path class="cls-26" d="M34.62446,252.4077a1.7027,1.7027,0,0,0,2.347.05431,1.45183,1.45183,0,1,0-2.347-.05431Z"/></svg>