<svg width="92" height="27" viewBox="0 0 92 27" fill="none" xmlns="http://www.w3.org/2000/svg">
<path d="M47.528 7.436L42.92 20H39.86L35.252 7.436H37.952L41.408 17.426L44.846 7.436H47.528ZM56.7069 12.512V14.636H49.0749V12.512H56.7069ZM66.661 13.556C67.369 13.688 67.951 14.042 68.407 14.618C68.863 15.194 69.091 15.854 69.091 16.598C69.091 17.27 68.923 17.864 68.587 18.38C68.263 18.884 67.789 19.28 67.165 19.568C66.541 19.856 65.803 20 64.951 20H59.533V7.436H64.717C65.569 7.436 66.301 7.574 66.913 7.85C67.537 8.126 68.005 8.51 68.317 9.002C68.641 9.494 68.803 10.052 68.803 10.676C68.803 11.408 68.605 12.02 68.209 12.512C67.825 13.004 67.309 13.352 66.661 13.556ZM62.053 12.62H64.357C64.957 12.62 65.419 12.488 65.743 12.224C66.067 11.948 66.229 11.558 66.229 11.054C66.229 10.55 66.067 10.16 65.743 9.884C65.419 9.608 64.957 9.47 64.357 9.47H62.053V12.62ZM64.591 17.948C65.203 17.948 65.677 17.804 66.013 17.516C66.361 17.228 66.535 16.82 66.535 16.292C66.535 15.752 66.355 15.332 65.995 15.032C65.635 14.72 65.149 14.564 64.537 14.564H62.053V17.948H64.591ZM73.6194 9.47V12.62H77.8494V14.618H73.6194V17.948H78.3894V20H71.0994V7.418H78.3894V9.47H73.6194ZM87.7715 20L83.1995 14.402V20H80.6795V7.436H83.1995V13.07L87.7715 7.436H90.8135L85.6295 13.664L90.9575 20H87.7715Z" fill="#3A3A3A"/>
<path d="M18 10C18 14.368 14.2461 18 9.5 18C4.75395 18 1 14.368 1 10C1 5.63198 4.75395 2 9.5 2C14.2461 2 18 5.63198 18 10Z" stroke="#3A3A3A" stroke-width="2"/>
<path d="M24 18C24 22.368 20.2461 26 15.5 26C10.7539 26 7 22.368 7 18C7 13.632 10.7539 10 15.5 10C20.2461 10 24 13.632 24 18Z" stroke="#3A3A3A" stroke-width="2"/>
</svg>
